<?xml version="1.0" standalone="no"?>
<!DOCTYPE svg PUBLIC "-//W3C//DTD SVG 20010904//EN"
 "http://www.w3.org/TR/2001/REC-SVG-20010904/DTD/svg10.dtd">
<svg version="1.0" xmlns="http://www.w3.org/2000/svg"
 width="1024.000000pt" height="1024.000000pt" viewBox="0 0 1024.000000 1024.000000"
 preserveAspectRatio="xMidYMid meet">

<g transform="translate(0.000000,1024.000000) scale(0.100000,-0.100000)"
fill="#000000" stroke="none">
<path d="M1470 8080 l0 -760 770 0 770 0 0 760 0 760 -770 0 -770 0 0 -760z
m1140 16 c0 -200 3 -371 6 -380 6 -14 -32 -16 -375 -16 l-381 0 0 380 0 380
375 0 375 0 0 -364z"/>
<path d="M7240 8073 l0 -766 152 6 c83 4 427 7 765 7 l613 0 0 760 0 760 -765
0 -765 0 0 -767z m1142 176 c2 -116 1 -287 0 -380 l-4 -169 -374 0 -374 0 0
380 0 380 374 0 375 0 3 -211z"/>
<path d="M3410 7510 l0 -190 1710 0 1710 0 0 190 0 190 -1710 0 -1710 0 0
-190z"/>
<path d="M1850 5105 l0 -1825 190 0 190 0 0 1825 0 1825 -190 0 -190 0 0
-1825z"/>
<path d="M2660 5440 l0 -1350 206 2 205 3 0 875 c0 481 4 866 8 855 5 -11 50
-139 101 -285 50 -146 174 -497 275 -780 100 -283 195 -550 210 -592 l28 -78
228 0 229 0 0 1350 0 1350 -200 0 -200 0 -2 -862 -3 -863 -46 125 c-26 69
-162 457 -304 863 l-258 737 -239 0 -238 0 0 -1350z"/>
<path d="M4562 5443 l3 -1348 202 0 203 0 0 425 1 425 99 150 99 150 14 -35
c28 -66 325 -865 369 -990 l44 -125 232 -3 c128 -1 232 -1 232 1 0 2 -79 219
-176 483 -283 772 -414 1134 -414 1145 0 5 119 248 265 539 l265 530 -228 0
-228 0 -149 -317 c-81 -175 -209 -439 -284 -588 l-136 -270 -3 588 -2 587
-205 0 -205 0 2 -1347z"/>
<path d="M6270 6595 l0 -195 415 0 c228 0 415 -2 415 -5 0 -3 -39 -94 -86
-203 -47 -108 -234 -542 -415 -963 l-329 -767 0 -186 0 -186 658 2 657 3 0
193 0 193 -417 0 -418 -1 9 22 c5 13 194 450 420 973 l411 950 0 182 0 183
-660 0 -660 0 0 -195z"/>
<path d="M8020 5092 c0 -808 2 -1471 4 -1473 2 -2 88 -3 190 -1 l186 3 0 1469
0 1470 -190 0 -190 0 0 -1468z"/>
<path d="M7190 3442 l0 -202 200 0 200 0 0 195 0 195 -93 0 c-52 0 -142 3
-200 7 l-107 6 0 -201z"/>
<path d="M3330 3435 l0 -195 375 0 375 0 0 -415 0 -415 -220 0 -220 0 0 -215
0 -215 420 0 421 0 -3 209 -3 209 50 6 c28 3 125 6 218 6 l167 0 0 211 0 212
-220 -5 -220 -4 0 209 0 210 420 -4 420 -4 0 -207 0 -208 440 0 440 0 0 405 0
405 -1430 0 -1430 0 0 -195z"/>
<path d="M6620 3030 l0 -200 200 0 200 0 0 200 0 200 -200 0 -200 0 0 -200z"/>
<path d="M1470 2143 l0 -776 308 6 c169 4 515 7 768 7 l462 0 -2 43 c-1 23 -3
369 -4 770 l-2 727 -765 0 -765 0 0 -777z m1149 2 l3 -385 -384 0 -383 0 3
385 2 385 378 0 377 0 4 -385z"/>
<path d="M7240 2148 l0 -773 765 3 765 2 0 770 0 770 -765 0 -765 0 0 -772z
m1149 -3 l-4 -385 -377 0 -378 0 0 203 c0 112 -3 286 -7 385 l-6 182 388 0
387 0 -3 -385z"/>
<path d="M5310 2200 l0 -220 220 0 220 0 0 220 0 220 -220 0 -220 0 0 -220z"/>
<path d="M6190 2200 l0 -220 210 0 210 0 0 220 0 220 -210 0 -210 0 0 -220z"/>
</g>
</svg>
